<svg width="24" height="24" viewBox="0 0 24 24" fill="none" xmlns="http://www.w3.org/2000/svg">
<path d="M21.4886 15.4688C21.5632 15.5984 21.5833 15.7523 21.5444 15.8966C21.5055 16.0409 21.4109 16.1639 21.2814 16.2385C21.1519 16.3131 20.998 16.3332 20.8536 16.2943C20.7093 16.2555 20.5863 16.1609 20.5117 16.0313L18.6367 12.7426C17.528 13.5199 16.29 14.0941 14.9805 14.4385L15.5589 17.9073C15.5711 17.9802 15.5688 18.0547 15.5522 18.1268C15.5356 18.1988 15.505 18.2668 15.462 18.327C15.4191 18.3871 15.3648 18.4382 15.3021 18.4774C15.2394 18.5165 15.1696 18.5429 15.0967 18.5551C15.0657 18.5599 15.0344 18.5624 15.003 18.5626C14.8701 18.5625 14.7416 18.5153 14.6402 18.4295C14.5388 18.3437 14.471 18.2248 14.4489 18.0938L13.8751 14.6663C12.6328 14.8615 11.3675 14.8615 10.1251 14.6663L9.55515 18.0938C9.53298 18.225 9.46507 18.344 9.36347 18.4298C9.26186 18.5156 9.13314 18.5627 9.00015 18.5626C8.96876 18.5624 8.93742 18.5599 8.9064 18.5551C8.83349 18.5428 8.76372 18.5163 8.70107 18.4771C8.63843 18.4378 8.58413 18.3866 8.54129 18.3263C8.49845 18.2661 8.46791 18.198 8.45141 18.1259C8.43492 18.0538 8.43279 17.9792 8.44515 17.9063L9.02359 14.4376C7.71406 14.0932 6.47609 13.5189 5.36734 12.7417L3.48859 16.0313C3.41399 16.1609 3.291 16.2555 3.14665 16.2943C3.00231 16.3332 2.84844 16.3131 2.7189 16.2385C2.58936 16.1639 2.49475 16.0409 2.4559 15.8966C2.41704 15.7523 2.43712 15.5984 2.51171 15.4688L4.4664 12.0488C3.771 11.4621 3.1334 10.81 2.56234 10.1017C2.4686 9.98554 2.42483 9.83695 2.44065 9.68856C2.45647 9.54017 2.5306 9.40414 2.64671 9.31041C2.76283 9.21667 2.91142 9.1729 3.05981 9.18872C3.2082 9.20454 3.34422 9.27867 3.43796 9.39478C5.01952 11.3542 7.78796 13.6876 12.0001 13.6876C16.2123 13.6876 18.9808 11.3542 20.5623 9.39666C20.6561 9.28054 20.7921 9.20642 20.9405 9.1906C21.0889 9.17477 21.2375 9.21854 21.3536 9.31228C21.4697 9.40602 21.5438 9.54204 21.5596 9.69043C21.5755 9.83882 21.5317 9.98742 21.438 10.1035C20.8669 10.8119 20.2293 11.4639 19.5339 12.0507L21.4886 15.4688Z" fill="#6B6985"/>
</svg>
