<svg width="24" height="24" viewBox="0 0 40 40" fill="none" xmlns="http://www.w3.org/2000/svg">
<path d="M38.3563 19.6203C38.3031 19.4984 37.0031 16.6156 34.1 13.7125C31.4063 11.0219 26.7781 7.8125 20 7.8125C13.2219 7.8125 8.59377 11.0219 5.90002 13.7125C2.99689 16.6156 1.69689 19.4937 1.64377 19.6203C1.59035 19.7403 1.56274 19.8702 1.56274 20.0016C1.56274 20.1329 1.59035 20.2628 1.64377 20.3828C1.69689 20.5031 2.99689 23.3859 5.90002 26.2891C8.59377 28.9797 13.2219 32.1875 20 32.1875C26.7781 32.1875 31.4063 28.9797 34.1 26.2891C37.0031 23.3859 38.3031 20.5078 38.3563 20.3828C38.4097 20.2628 38.4373 20.1329 38.4373 20.0016C38.4373 19.8702 38.4097 19.7403 38.3563 19.6203ZM20 30.3125C15.0969 30.3125 10.8156 28.5281 7.27345 25.0109C5.78857 23.5352 4.53205 21.8463 3.54533 20C4.53176 18.1539 5.78833 16.4655 7.27345 14.9906C10.8156 11.4719 15.0969 9.6875 20 9.6875C24.9031 9.6875 29.1844 11.4719 32.7266 14.9906C34.2117 16.4655 35.4683 18.1539 36.4547 20C35.4594 21.9078 30.4688 30.3125 20 30.3125ZM20 12.8125C18.5785 12.8125 17.1888 13.234 16.0069 14.0238C14.8249 14.8136 13.9036 15.9361 13.3596 17.2495C12.8156 18.5628 12.6733 20.008 12.9506 21.4022C13.228 22.7964 13.9125 24.0771 14.9177 25.0823C15.9229 26.0875 17.2036 26.7721 18.5978 27.0494C19.992 27.3267 21.4372 27.1844 22.7506 26.6404C24.0639 26.0964 25.1864 25.1751 25.9762 23.9932C26.766 22.8112 27.1875 21.4216 27.1875 20C27.185 18.0945 26.427 16.2678 25.0796 14.9204C23.7322 13.573 21.9055 12.815 20 12.8125ZM20 25.3125C18.9493 25.3125 17.9222 25.0009 17.0485 24.4172C16.1749 23.8334 15.494 23.0037 15.0919 22.033C14.6898 21.0623 14.5846 19.9941 14.7896 18.9636C14.9946 17.9331 15.5005 16.9865 16.2435 16.2435C16.9865 15.5005 17.9331 14.9946 18.9636 14.7896C19.9941 14.5846 21.0623 14.6898 22.033 15.0919C23.0038 15.494 23.8335 16.1749 24.4172 17.0485C25.0009 17.9222 25.3125 18.9493 25.3125 20C25.3125 21.409 24.7528 22.7602 23.7565 23.7565C22.7602 24.7528 21.409 25.3125 20 25.3125Z" fill="#6B6985"/>
</svg>
