<svg width="20" height="21" viewBox="0 0 20 21" fill="none" xmlns="http://www.w3.org/2000/svg">
<path d="M2.91726 7.26646C2.91742 6.47639 3.12182 5.69978 3.51061 5.01199C3.8994 4.3242 4.45938 3.74859 5.13621 3.34101C5.81304 2.93344 6.58373 2.70775 7.3735 2.68584C8.16326 2.66394 8.94528 2.84655 9.64367 3.21598C10.3421 3.5854 10.9331 4.12908 11.3594 4.79426C11.7857 5.45944 12.0329 6.22352 12.0768 7.01237C12.1208 7.80122 11.9601 8.58804 11.6103 9.29647C11.2606 10.0049 10.7336 10.6109 10.0806 11.0556C11.4868 11.5714 12.7066 12.4962 13.5828 13.711C14.459 14.9259 14.9516 16.3751 14.9973 17.8723C14.9953 18.0337 14.9311 18.1881 14.818 18.3033C14.7048 18.4185 14.5516 18.4855 14.3902 18.4903C14.2289 18.4952 14.0719 18.4375 13.9521 18.3293C13.8323 18.2211 13.7589 18.0708 13.7473 17.9098C13.6976 16.286 13.0177 14.7453 11.8516 13.6143C10.6854 12.4833 9.12472 11.8507 7.50017 11.8507C5.87563 11.8507 4.31492 12.4833 3.14878 13.6143C1.98264 14.7453 1.30272 16.286 1.25309 17.9098C1.24475 18.073 1.17282 18.2264 1.05272 18.3372C0.932625 18.448 0.773906 18.5074 0.610569 18.5026C0.447231 18.4978 0.292267 18.4292 0.178875 18.3116C0.065483 18.1939 0.00268133 18.0365 0.00392436 17.8731C0.0493838 16.3758 0.54193 14.9264 1.41816 13.7114C2.2944 12.4964 3.51421 11.5715 4.92059 11.0556C4.30295 10.6353 3.7975 10.0703 3.44832 9.40985C3.09913 8.7494 2.91681 8.01354 2.91726 7.26646ZM7.50059 3.93313C6.61654 3.93313 5.76869 4.28432 5.14357 4.90944C4.51845 5.53456 4.16726 6.38241 4.16726 7.26646C4.16726 8.15051 4.51845 8.99836 5.14357 9.62348C5.76869 10.2486 6.61654 10.5998 7.50059 10.5998C8.38465 10.5998 9.23249 10.2486 9.85761 9.62348C10.4827 8.99836 10.8339 8.15051 10.8339 7.26646C10.8339 6.38241 10.4827 5.53456 9.85761 4.90944C9.23249 4.28432 8.38465 3.93313 7.50059 3.93313ZM14.4089 7.26646C14.2856 7.26646 14.1656 7.27479 14.0473 7.29146C13.9646 7.30625 13.8799 7.30425 13.7981 7.28558C13.7162 7.26691 13.639 7.23195 13.571 7.18278C13.503 7.13362 13.4455 7.07125 13.4021 6.99941C13.3587 6.92757 13.3302 6.84772 13.3184 6.76463C13.3065 6.68154 13.3115 6.59692 13.333 6.5158C13.3546 6.43468 13.3923 6.35873 13.4438 6.29248C13.4953 6.22624 13.5597 6.17105 13.633 6.13021C13.7063 6.08937 13.7871 6.06372 13.8706 6.05479C14.6994 5.93496 15.5445 6.09412 16.273 6.50723C17.0014 6.92034 17.5718 7.56393 17.8944 8.33673C18.217 9.10953 18.2735 9.96766 18.055 10.7761C17.8364 11.5845 17.3553 12.2973 16.6873 12.8023C17.6692 13.242 18.503 13.9565 19.088 14.8595C19.6729 15.7625 19.9841 16.8155 19.9839 17.8915C19.9839 18.0572 19.9181 18.2162 19.8009 18.3334C19.6837 18.4506 19.5247 18.5165 19.3589 18.5165C19.1932 18.5165 19.0342 18.4506 18.917 18.3334C18.7998 18.2162 18.7339 18.0572 18.7339 17.8915C18.7338 16.9616 18.4342 16.0565 17.8795 15.3102C17.3247 14.5639 16.5443 14.0162 15.6539 13.7481L15.2089 13.6148V12.2181L15.5506 12.044C16.0571 11.7874 16.4623 11.3677 16.7008 10.8525C16.9394 10.3373 16.9974 9.75678 16.8654 9.20459C16.7335 8.65241 16.4193 8.1608 15.9736 7.80915C15.5279 7.45749 14.9767 7.26631 14.4089 7.26646Z" fill="#FCFCFD"/>
</svg>
