<svg width="24" height="25" viewBox="0 0 24 25" fill="none" xmlns="http://www.w3.org/2000/svg">
<path d="M11.1764 4.51429C11.3992 4.30365 11.6942 4.18628 12.0008 4.18628C12.3074 4.18628 12.6024 4.30365 12.8252 4.51429L18.638 10.0091C18.998 10.3487 19.2008 10.8227 19.2008 11.3171V18.0011C19.2008 18.4785 19.0111 18.9363 18.6736 19.2739C18.336 19.6114 17.8782 19.8011 17.4008 19.8011H15.0008C14.7643 19.8011 14.5301 19.7545 14.3117 19.664C14.0932 19.5734 13.8947 19.4407 13.7276 19.2735C13.5604 19.1062 13.4278 18.9076 13.3375 18.6891C13.2471 18.4706 13.2006 18.2364 13.2008 17.9999V14.9999C13.2008 14.8408 13.1376 14.6881 13.025 14.5756C12.9125 14.4631 12.7599 14.3999 12.6008 14.3999H11.4008C11.2417 14.3999 11.089 14.4631 10.9765 14.5756C10.864 14.6881 10.8008 14.8408 10.8008 14.9999V17.9999C10.8008 18.4773 10.6111 18.9351 10.2736 19.2727C9.93601 19.6102 9.47817 19.7999 9.00078 19.7999H6.60078C6.12339 19.7999 5.66555 19.6102 5.32799 19.2727C4.99042 18.9351 4.80078 18.4773 4.80078 17.9999V11.3159C4.80078 10.8215 5.00478 10.3475 5.36478 10.0079L11.1764 4.51189V4.51429ZM12.0008 5.38549L6.18798 10.8815C6.12897 10.9374 6.08195 11.0048 6.04977 11.0795C6.01759 11.1541 6.00092 11.2346 6.00078 11.3159V17.9999C6.00078 18.159 6.064 18.3116 6.17652 18.4242C6.28904 18.5367 6.44165 18.5999 6.60078 18.5999H9.00078C9.15991 18.5999 9.31252 18.5367 9.42505 18.4242C9.53757 18.3116 9.60078 18.159 9.60078 17.9999V14.9999C9.60078 14.5225 9.79042 14.0647 10.128 13.7271C10.4656 13.3895 10.9234 13.1999 11.4008 13.1999H12.6008C13.0782 13.1999 13.536 13.3895 13.8736 13.7271C14.2111 14.0647 14.4008 14.5225 14.4008 14.9999V17.9999C14.4008 18.159 14.464 18.3116 14.5765 18.4242C14.689 18.5367 14.8417 18.5999 15.0008 18.5999H17.4008C17.5599 18.5999 17.7125 18.5367 17.825 18.4242C17.9376 18.3116 18.0008 18.159 18.0008 17.9999V11.3159C18.0008 11.2344 17.9842 11.1537 17.952 11.0788C17.9198 11.0039 17.8727 10.9364 17.8136 10.8803L12.0008 5.38549Z" fill="#FCFCFD"/>
</svg>
