<svg width="24" height="25" viewBox="0 0 24 25" fill="none" xmlns="http://www.w3.org/2000/svg">
<path fill-rule="evenodd" clip-rule="evenodd" d="M6.21521 4.59985H6.15368C5.87186 4.59985 5.62941 4.59985 5.41528 4.65031C5.08378 4.72952 4.78068 4.89896 4.53957 5.13986C4.29845 5.38076 4.12874 5.6837 4.04923 6.01513C4 6.22927 4 6.47048 4 6.75353V9.83022C4 10.112 4 10.3545 4.05046 10.5686C4.12967 10.9001 4.29911 11.2032 4.54001 11.4443C4.7809 11.6854 5.08385 11.8552 5.41528 11.9347C5.62941 11.9839 5.87063 11.9839 6.15368 11.9839H9.23037C9.51219 11.9839 9.75463 11.9839 9.96877 11.9334C10.3003 11.8542 10.6034 11.6848 10.8445 11.4439C11.0856 11.203 11.2553 10.9001 11.3348 10.5686C11.384 10.3545 11.384 10.1133 11.384 9.83022V6.75353C11.384 6.47171 11.384 6.22927 11.3336 6.01513C11.2544 5.68363 11.0849 5.38053 10.844 5.13942C10.6031 4.89831 10.3002 4.72859 9.96877 4.64908C9.75463 4.59985 9.51342 4.59985 9.23037 4.59985H6.21521ZM5.70202 5.84776C5.75494 5.83545 5.8374 5.83053 6.21521 5.83053H9.16883C9.54788 5.83053 9.62911 5.83422 9.68202 5.84776C9.79258 5.87419 9.89364 5.93074 9.97402 6.01111C10.0544 6.09149 10.1109 6.19256 10.1374 6.30311C10.1497 6.3548 10.1534 6.43602 10.1534 6.81507V9.76869C10.1534 10.1477 10.1497 10.229 10.1361 10.2819C10.1097 10.3924 10.0532 10.4935 9.97279 10.5739C9.89241 10.6542 9.79135 10.7108 9.68079 10.7372C9.63034 10.7483 9.54911 10.7532 9.16883 10.7532H6.21521C5.83617 10.7532 5.75494 10.7495 5.70202 10.736C5.59147 10.7096 5.4904 10.653 5.41003 10.5726C5.32965 10.4923 5.27311 10.3912 5.24667 10.2806C5.2356 10.2302 5.23067 10.149 5.23067 9.76869V6.81507C5.23067 6.43602 5.23437 6.3548 5.2479 6.30188C5.27434 6.19132 5.33088 6.09026 5.41126 6.00988C5.49163 5.92951 5.5927 5.87296 5.70325 5.84653L5.70202 5.84776ZM14.8299 4.59985H14.7684C14.4866 4.59985 14.2441 4.59985 14.03 4.65031C13.6985 4.72952 13.3954 4.89896 13.1543 5.13986C12.9132 5.38076 12.7435 5.6837 12.6639 6.01513C12.6147 6.22927 12.6147 6.47048 12.6147 6.75353V9.83022C12.6147 10.112 12.6147 10.3545 12.6652 10.5686C12.7444 10.9001 12.9138 11.2032 13.1547 11.4443C13.3956 11.6854 13.6986 11.8552 14.03 11.9347C14.2441 11.9839 14.4853 11.9839 14.7684 11.9839H17.8451C18.1269 11.9839 18.3694 11.9839 18.5835 11.9334C18.915 11.8542 19.2181 11.6848 19.4592 11.4439C19.7003 11.203 19.87 10.9001 19.9495 10.5686C19.9988 10.3545 19.9988 10.1133 19.9988 9.83022V6.75353C19.9988 6.47171 19.9988 6.22927 19.9483 6.01513C19.8691 5.68363 19.6997 5.38053 19.4588 5.13942C19.2179 4.89831 18.9149 4.72859 18.5835 4.64908C18.3694 4.59985 18.1281 4.59985 17.8451 4.59985H14.8299ZM14.3167 5.84776C14.3697 5.83545 14.4521 5.83053 14.8299 5.83053H17.7836C18.1626 5.83053 18.2438 5.83422 18.2967 5.84776C18.4073 5.87419 18.5084 5.93074 18.5887 6.01111C18.6691 6.09149 18.7257 6.19256 18.7521 6.30311C18.7644 6.3548 18.7681 6.43602 18.7681 6.81507V9.76869C18.7681 10.1477 18.7632 10.229 18.7509 10.2819C18.7244 10.3924 18.6679 10.4935 18.5875 10.5739C18.5071 10.6542 18.4061 10.7108 18.2955 10.7372C18.2438 10.7495 18.1626 10.7532 17.7836 10.7532H14.8299C14.4509 10.7532 14.3697 10.7495 14.3167 10.736C14.2062 10.7096 14.1051 10.653 14.0247 10.5726C13.9444 10.4923 13.8878 10.3912 13.8614 10.2806C13.8503 10.2302 13.8454 10.149 13.8454 9.76869V6.81507C13.8454 6.43602 13.8491 6.3548 13.8626 6.30188C13.8891 6.19132 13.9456 6.09026 14.026 6.00988C14.1064 5.92951 14.2074 5.87296 14.318 5.84653L14.3167 5.84776ZM6.15368 13.2146H9.23037C9.51219 13.2146 9.75463 13.2146 9.96877 13.265C10.3003 13.3442 10.6034 13.5137 10.8445 13.7546C11.0856 13.9955 11.2553 14.2984 11.3348 14.6299C11.384 14.844 11.384 15.0852 11.384 15.3683V18.4449C11.384 18.7268 11.384 18.9692 11.3336 19.1833C11.2544 19.5148 11.0849 19.8179 10.844 20.0591C10.6031 20.3002 10.3002 20.4699 9.96877 20.5494C9.75463 20.5986 9.51342 20.5986 9.23037 20.5986H6.15368C5.87186 20.5986 5.62941 20.5986 5.41528 20.5482C5.08378 20.469 4.78068 20.2995 4.53957 20.0586C4.29845 19.8177 4.12874 19.5148 4.04923 19.1833C4 18.9692 4 18.728 4 18.4449V15.3683C4 15.0864 4 14.844 4.05046 14.6299C4.12967 14.2984 4.29911 13.9953 4.54001 13.7541C4.7809 13.513 5.08385 13.3433 5.41528 13.2638C5.62941 13.2146 5.87063 13.2146 6.15368 13.2146ZM6.21521 14.4452C5.83617 14.4452 5.75494 14.4489 5.70202 14.4625C5.59147 14.4889 5.4904 14.5455 5.41003 14.6258C5.32965 14.7062 5.27311 14.8073 5.24667 14.9178C5.2356 14.9683 5.23067 15.0495 5.23067 15.4298V18.3834C5.23067 18.7625 5.23437 18.8437 5.2479 18.8966C5.27434 19.0072 5.33088 19.1082 5.41126 19.1886C5.49163 19.269 5.5927 19.3255 5.70325 19.3519C5.75494 19.3643 5.83617 19.3679 6.21521 19.3679H9.16883C9.54788 19.3679 9.62911 19.363 9.68202 19.3507C9.79258 19.3243 9.89364 19.2677 9.97402 19.1874C10.0544 19.107 10.1109 19.0059 10.1374 18.8954C10.1497 18.8437 10.1534 18.7625 10.1534 18.3834V15.4298C10.1534 15.0507 10.1497 14.9695 10.1361 14.9166C10.1097 14.806 10.0532 14.705 9.97279 14.6246C9.89241 14.5442 9.79135 14.4877 9.68079 14.4612C9.63034 14.4502 9.54911 14.4452 9.16883 14.4452H6.21521ZM14.8299 13.2146H14.7684C14.4866 13.2146 14.2441 13.2146 14.03 13.265C13.6985 13.3442 13.3954 13.5137 13.1543 13.7546C12.9132 13.9955 12.7435 14.2984 12.6639 14.6299C12.6147 14.844 12.6147 15.0852 12.6147 15.3683V18.4449C12.6147 18.7268 12.6147 18.9692 12.6652 19.1833C12.7444 19.5148 12.9138 19.8179 13.1547 20.0591C13.3956 20.3002 13.6986 20.4699 14.03 20.5494C14.2441 20.5999 14.4866 20.5999 14.7684 20.5999H17.8451C18.1269 20.5999 18.3694 20.5999 18.5835 20.5494C18.9148 20.47 19.2176 20.3005 19.4585 20.0596C19.6994 19.8187 19.8689 19.5159 19.9483 19.1846C19.9988 18.9704 19.9988 18.728 19.9988 18.4462V15.3683C19.9988 15.0864 19.9988 14.844 19.9483 14.6299C19.8691 14.2984 19.6997 13.9953 19.4588 13.7541C19.2179 13.513 18.9149 13.3433 18.5835 13.2638C18.3694 13.2146 18.1281 13.2146 17.8451 13.2146H14.8299ZM14.3167 14.4625C14.3697 14.4502 14.4521 14.4452 14.8299 14.4452H17.7836C18.1626 14.4452 18.2438 14.4489 18.2967 14.4625C18.4073 14.4889 18.5084 14.5455 18.5887 14.6258C18.6691 14.7062 18.7257 14.8073 18.7521 14.9178C18.7644 14.9695 18.7681 15.0507 18.7681 15.4298V18.3834C18.7681 18.7625 18.7632 18.8437 18.7509 18.8966C18.7244 19.0072 18.6679 19.1082 18.5875 19.1886C18.5071 19.269 18.4061 19.3255 18.2955 19.3519C18.2438 19.3643 18.1626 19.3679 17.7836 19.3679H14.8299C14.4509 19.3679 14.3697 19.363 14.3167 19.3507C14.2062 19.3243 14.1051 19.2677 14.0247 19.1874C13.9444 19.107 13.8878 19.0059 13.8614 18.8954C13.8503 18.8449 13.8454 18.7637 13.8454 18.3834V15.4298C13.8454 15.0507 13.8491 14.9695 13.8626 14.9166C13.8891 14.806 13.9456 14.705 14.026 14.6246C14.1064 14.5442 14.2074 14.4877 14.318 14.4612L14.3167 14.4625Z" fill="#FCFCFD"/>
</svg>
