<svg width="24" height="25" viewBox="0 0 24 25" fill="none" xmlns="http://www.w3.org/2000/svg">
<g clip-path="url(#clip0_219_17580)">
<path d="M13.4219 16.4749C13.4219 16.6974 13.3559 16.9149 13.2323 17.0999C13.1087 17.2849 12.933 17.4291 12.7274 17.5142C12.5218 17.5994 12.2956 17.6216 12.0774 17.5782C11.8592 17.5348 11.6587 17.4277 11.5014 17.2703C11.3441 17.113 11.2369 16.9126 11.1935 16.6943C11.1501 16.4761 11.1724 16.2499 11.2575 16.0443C11.3427 15.8388 11.4869 15.6631 11.6719 15.5395C11.8569 15.4158 12.0744 15.3499 12.2969 15.3499C12.5952 15.3499 12.8814 15.4684 13.0924 15.6794C13.3034 15.8903 13.4219 16.1765 13.4219 16.4749ZM12.2969 6.34985C10.2288 6.34985 8.54688 7.86392 8.54688 9.72485V10.0999C8.54688 10.2988 8.6259 10.4895 8.76655 10.6302C8.9072 10.7708 9.09797 10.8499 9.29688 10.8499C9.49579 10.8499 9.68656 10.7708 9.82721 10.6302C9.96786 10.4895 10.0469 10.2988 10.0469 10.0999V9.72485C10.0469 8.6936 11.0566 7.84985 12.2969 7.84985C13.5372 7.84985 14.5469 8.6936 14.5469 9.72485C14.5469 10.7561 13.5372 11.5999 12.2969 11.5999C12.098 11.5999 11.9072 11.6789 11.7665 11.8195C11.6259 11.9602 11.5469 12.1509 11.5469 12.3499V13.0999C11.5469 13.2988 11.6259 13.4895 11.7665 13.6302C11.9072 13.7708 12.098 13.8499 12.2969 13.8499C12.4958 13.8499 12.6866 13.7708 12.8272 13.6302C12.9679 13.4895 13.0469 13.2988 13.0469 13.0999V13.0324C14.7569 12.7183 16.0469 11.3542 16.0469 9.72485C16.0469 7.86392 14.365 6.34985 12.2969 6.34985ZM22.0469 11.5999C22.0469 13.5282 21.4751 15.4133 20.4037 17.0167C19.3324 18.62 17.8096 19.8697 16.028 20.6077C14.2465 21.3456 12.2861 21.5387 10.3947 21.1625C8.50343 20.7863 6.76615 19.8577 5.40259 18.4941C4.03903 17.1306 3.11043 15.3933 2.73422 13.502C2.35802 11.6107 2.5511 9.65027 3.28905 7.86869C4.02701 6.08711 5.27669 4.56437 6.88007 3.49302C8.48345 2.42168 10.3685 1.84985 12.2969 1.84985C14.8819 1.85258 17.3603 2.88069 19.1882 4.70858C21.016 6.53647 22.0441 9.01483 22.0469 11.5999ZM20.5469 11.5999C20.5469 9.96816 20.063 8.3731 19.1565 7.0164C18.25 5.65969 16.9615 4.60227 15.454 3.97785C13.9465 3.35342 12.2877 3.19005 10.6874 3.50837C9.08704 3.8267 7.61703 4.61244 6.46325 5.76622C5.30947 6.92001 4.52373 8.39002 4.2054 9.99036C3.88707 11.5907 4.05045 13.2495 4.67487 14.757C5.2993 16.2645 6.35672 17.553 7.71342 18.4595C9.07013 19.366 10.6652 19.8499 12.2969 19.8499C14.4842 19.8474 16.5811 18.9774 18.1278 17.4307C19.6744 15.8841 20.5444 13.7871 20.5469 11.5999Z" fill="#FCFCFD"/>
</g>
<defs>
<clipPath id="clip0_219_17580">
<rect width="24" height="24" fill="white" transform="translate(0 0.599854)"/>
</clipPath>
</defs>
</svg>
