<svg width="24" height="25" viewBox="0 0 24 25" fill="none" xmlns="http://www.w3.org/2000/svg">
<path d="M4 18.5999C4 17.539 4.42143 16.5216 5.17157 15.7714C5.92172 15.0213 6.93913 14.5999 8 14.5999H16C17.0609 14.5999 18.0783 15.0213 18.8284 15.7714C19.5786 16.5216 20 17.539 20 18.5999C20 19.1303 19.7893 19.639 19.4142 20.0141C19.0391 20.3891 18.5304 20.5999 18 20.5999H6C5.46957 20.5999 4.96086 20.3891 4.58579 20.0141C4.21071 19.639 4 19.1303 4 18.5999Z" stroke="#FCFCFD" stroke-width="1.5" stroke-linejoin="round"/>
<path d="M12 10.5999C13.6569 10.5999 15 9.25671 15 7.59985C15 5.943 13.6569 4.59985 12 4.59985C10.3431 4.59985 9 5.943 9 7.59985C9 9.25671 10.3431 10.5999 12 10.5999Z" stroke="#FCFCFD" stroke-width="1.5"/>
</svg>
