<svg width="24" height="25" viewBox="0 0 24 25" fill="none" xmlns="http://www.w3.org/2000/svg">
<path d="M6.72852 4.34985H17.8706" stroke="#FCFCFD" stroke-width="1.5" stroke-linecap="round"/>
<path d="M20.0996 6.57837C20.0996 5.98732 19.8648 5.42048 19.4469 5.00255C19.029 4.58462 18.4621 4.34982 17.8711 4.34982" stroke="#FCFCFD" stroke-width="1.5" stroke-linecap="round" stroke-linejoin="round"/>
<path d="M4.49997 6.57837C4.49997 5.98732 4.73476 5.42048 5.1527 5.00255C5.57063 4.58462 6.13747 4.34982 6.72852 4.34982" stroke="#FCFCFD" stroke-width="1.5" stroke-linecap="round" stroke-linejoin="round"/>
<path d="M4.49997 14.3782C4.49997 14.6708 4.55761 14.9606 4.66961 15.231C4.7816 15.5014 4.94576 15.7471 5.1527 15.954C5.35964 16.1609 5.60531 16.3251 5.87569 16.4371C6.14607 16.5491 6.43586 16.6067 6.72852 16.6067" stroke="#FCFCFD" stroke-width="1.5" stroke-linecap="round" stroke-linejoin="round"/>
<path d="M20.0996 14.3782C20.0996 14.9692 19.8648 15.5361 19.4469 15.954C19.029 16.3719 18.4621 16.6067 17.8711 16.6067" stroke="#FCFCFD" stroke-width="1.5" stroke-linecap="round" stroke-linejoin="round"/>
<path d="M4.5 6.57861V14.3785" stroke="#FCFCFD" stroke-width="1.5" stroke-linecap="round" stroke-linejoin="round"/>
<path d="M20.0996 6.57837V14.3783" stroke="#FCFCFD" stroke-width="1.5" stroke-linecap="round" stroke-linejoin="round"/>
<path d="M6.72852 16.6067H8.95706L12.2999 19.9495L15.6427 16.6067H17.8713" stroke="#FCFCFD" stroke-width="1.5" stroke-linecap="round" stroke-linejoin="round"/>
</svg>
