<svg width="24" height="24" viewBox="0 0 24 24" fill="none" xmlns="http://www.w3.org/2000/svg">
<path d="M4.4 20.3999L21.85 12.9199C22.0304 12.8431 22.1842 12.7149 22.2923 12.5513C22.4004 12.3877 22.4581 12.196 22.4581 11.9999C22.4581 11.8038 22.4004 11.6121 22.2923 11.4485C22.1842 11.2849 22.0304 11.1567 21.85 11.0799L4.4 3.5999C4.2489 3.534 4.08377 3.50675 3.91951 3.52061C3.75525 3.53447 3.59702 3.589 3.4591 3.6793C3.32118 3.76959 3.20791 3.8928 3.1295 4.0378C3.0511 4.18281 3.01003 4.34506 3.01 4.5099L3 9.1199C3 9.6199 3.37 10.0499 3.87 10.1099L18 11.9999L3.87 13.8799C3.37 13.9499 3 14.3799 3 14.8799L3.01 19.4899C3.01 20.1999 3.74 20.6899 4.4 20.3999Z" fill="#64108F"/>
</svg>
