<svg width="12" height="12" viewBox="0 0 12 12" fill="none" xmlns="http://www.w3.org/2000/svg">
<path d="M7.8992 0.904202C7.74712 0.751889 7.56139 0.637325 7.35692 0.569713C7.15246 0.5021 6.93498 0.483324 6.72193 0.514894C6.50889 0.546463 6.30623 0.627497 6.13023 0.751486C5.95423 0.875475 5.8098 1.03896 5.70855 1.22882L3.85393 4.7042L1.27306 5.56342C1.19877 5.58807 1.13202 5.63128 1.07916 5.68895C1.0263 5.74662 0.989089 5.81684 0.971056 5.89292C0.953023 5.96901 0.954771 6.04844 0.976134 6.12365C0.997497 6.19887 1.03777 6.26739 1.09311 6.32269L3.06434 8.29054L0.634047 10.7178L0.5 11.5L1.28408 11.3661L3.71345 8.93885L5.68376 10.9076C5.73912 10.9629 5.80772 11.0031 5.88304 11.0245C5.95835 11.0458 6.03787 11.0475 6.11405 11.0295C6.19023 11.0115 6.26054 10.9744 6.31828 10.9216C6.37602 10.8688 6.41929 10.8021 6.44397 10.7279L7.30426 8.15116L10.7739 6.29518C10.963 6.19385 11.1258 6.04979 11.2492 5.87448C11.3727 5.69917 11.4534 5.49747 11.485 5.28546C11.5166 5.07346 11.4981 4.85702 11.4311 4.65341C11.364 4.4498 11.2503 4.26465 11.0989 4.11274L7.90012 0.903285L7.8992 0.904202ZM6.51834 1.6598C6.55207 1.59641 6.60023 1.54181 6.65895 1.5004C6.71767 1.459 6.7853 1.43194 6.8564 1.42142C6.9275 1.41089 7.00008 1.41719 7.0683 1.4398C7.13652 1.46241 7.19847 1.5007 7.24917 1.5516L10.4488 4.75922C10.4994 4.80986 10.5375 4.87161 10.5599 4.93955C10.5823 5.00748 10.5885 5.07972 10.578 5.15047C10.5674 5.22122 10.5405 5.28854 10.4992 5.34702C10.458 5.40551 10.4037 5.45355 10.3405 5.48731L6.71023 7.42766C6.60686 7.48309 6.52867 7.57595 6.49171 7.68716L5.80862 9.7348L2.26832 6.19889L4.31758 5.51665C4.42925 5.4793 4.52227 5.40051 4.57741 5.29658L6.51834 1.6598Z" fill="#64108F"/>
</svg>
