<svg width="20" height="21" viewBox="0 0 20 21" fill="none" xmlns="http://www.w3.org/2000/svg">
<path d="M7.30019 13.5999C7.38419 13.5999 7.46819 13.5975 7.5522 13.5915C7.6842 13.1271 7.86419 12.6831 8.08979 12.2667C7.72806 12.3927 7.34142 12.4303 6.96218 12.3764C6.58294 12.3224 6.22213 12.1785 5.90989 11.9566C5.59766 11.7347 5.34307 11.4413 5.16741 11.1009C4.99176 10.7605 4.90013 10.383 4.9002 9.9999V4.0011C4.9002 3.36458 5.15305 2.75413 5.60314 2.30405C6.05323 1.85396 6.66368 1.6011 7.30019 1.6011C7.93671 1.6011 8.54716 1.85396 8.99725 2.30405C9.44734 2.75413 9.70019 3.36458 9.70019 4.0011V10.0011C9.70019 10.1115 9.693 10.2207 9.6786 10.3275C10.0545 10.014 10.4642 9.74352 10.9002 9.5211V3.9999C10.9002 3.04512 10.5209 2.12945 9.84578 1.45432C9.17065 0.779187 8.25497 0.399902 7.30019 0.399902C6.34542 0.399902 5.42974 0.779187 4.75461 1.45432C4.07948 2.12945 3.7002 3.04512 3.7002 3.9999V9.9999C3.7002 10.9547 4.07948 11.8704 4.75461 12.5455C5.42974 13.2206 6.34542 13.5999 7.30019 13.5999ZM1.9002 9.9999C1.9002 11.4321 2.46912 12.8056 3.48182 13.8183C4.49451 14.831 5.86803 15.3999 7.30019 15.3999C7.30019 16.3827 7.515 17.3151 7.9002 18.1527V18.9999C7.9002 19.159 7.83698 19.3116 7.72446 19.4242C7.61194 19.5367 7.45932 19.5999 7.30019 19.5999C7.14107 19.5999 6.98845 19.5367 6.87593 19.4242C6.76341 19.3116 6.70019 19.159 6.70019 18.9999V16.5735C5.06029 16.4238 3.53559 15.6665 2.42546 14.4502C1.31533 13.2339 0.699964 11.6466 0.700195 9.9999C0.700195 9.84077 0.76341 9.68816 0.875931 9.57564C0.988453 9.46312 1.14107 9.3999 1.3002 9.3999C1.45933 9.3999 1.61194 9.46312 1.72446 9.57564C1.83698 9.68816 1.9002 9.84077 1.9002 9.9999ZM16.9002 15.3999C16.9002 16.1956 16.5841 16.9586 16.0215 17.5212C15.4589 18.0838 14.6958 18.3999 13.9002 18.3999C13.1045 18.3999 12.3415 18.0838 11.7789 17.5212C11.2163 16.9586 10.9002 16.1956 10.9002 15.3999C10.9002 14.6043 11.2163 13.8412 11.7789 13.2786C12.3415 12.716 13.1045 12.3999 13.9002 12.3999C14.6958 12.3999 15.4589 12.716 16.0215 13.2786C16.5841 13.8412 16.9002 14.6043 16.9002 15.3999ZM19.3002 15.3999C19.3002 16.8321 18.7313 18.2056 17.7186 19.2183C16.7059 20.231 15.3324 20.7999 13.9002 20.7999C12.468 20.7999 11.0945 20.231 10.0818 19.2183C9.06912 18.2056 8.5002 16.8321 8.5002 15.3999C8.5002 13.9677 9.06912 12.5942 10.0818 11.5815C11.0945 10.5688 12.468 9.9999 13.9002 9.9999C15.3324 9.9999 16.7059 10.5688 17.7186 11.5815C18.7313 12.5942 19.3002 13.9677 19.3002 15.3999ZM9.70019 15.3999C9.70019 15.9515 9.80883 16.4976 10.0199 17.0072C10.231 17.5167 10.5403 17.9797 10.9303 18.3698C11.3204 18.7598 11.7834 19.0691 12.2929 19.2802C12.8025 19.4913 13.3486 19.5999 13.9002 19.5999C14.4517 19.5999 14.9979 19.4913 15.5075 19.2802C16.017 19.0691 16.48 18.7598 16.87 18.3698C17.26 17.9797 17.5694 17.5167 17.7805 17.0072C17.9916 16.4976 18.1002 15.9515 18.1002 15.3999C18.1002 14.286 17.6577 13.2177 16.87 12.4301C16.0824 11.6424 15.0141 11.1999 13.9002 11.1999C12.7863 11.1999 11.718 11.6424 10.9303 12.4301C10.1427 13.2177 9.70019 14.286 9.70019 15.3999Z" fill="#6F2197"/>
</svg>
