<svg width="28" height="28" viewBox="0 0 28 28" fill="none" xmlns="http://www.w3.org/2000/svg">
<path fill-rule="evenodd" clip-rule="evenodd" d="M12.1146 0.800328C12.5866 0.32896 13.2181 0.0515995 13.8846 0.0229675C14.551 -0.00566457 15.204 0.216511 15.7146 0.645662L15.8853 0.801662L18.4186 3.33366H22C22.6725 3.33378 23.3202 3.58802 23.8132 4.04544C24.3062 4.50286 24.6082 5.12968 24.6586 5.80033L24.6666 6.00033V9.58166L27.2 12.115C27.6717 12.587 27.9493 13.2188 27.9779 13.8856C28.0066 14.5523 27.7842 15.2056 27.3546 15.7163L27.1986 15.8857L24.6653 18.419V22.0003C24.6655 22.6731 24.4114 23.3211 23.954 23.8144C23.4965 24.3077 22.8695 24.6099 22.1986 24.6603L22 24.667H18.42L15.8866 27.2003C15.4146 27.6721 14.7828 27.9497 14.1161 27.9783C13.4493 28.0069 12.7961 27.7845 12.2853 27.355L12.116 27.2003L9.58263 24.667H5.99996C5.32719 24.6672 4.6792 24.4131 4.1859 23.9557C3.69259 23.4982 3.39042 22.8712 3.33996 22.2003L3.33329 22.0003V18.419L0.79996 15.8857C0.328219 15.4136 0.050624 14.7818 0.0219891 14.1151C-0.00664574 13.4483 0.215762 12.7951 0.645294 12.2843L0.79996 12.115L3.33329 9.58166V6.00033C3.33342 5.32779 3.58766 4.68013 4.04508 4.18711C4.5025 3.69408 5.12932 3.3921 5.79996 3.34166L5.99996 3.33366H9.58129L12.1146 0.800328ZM18.1053 9.97766L12.4466 15.6363L10.0893 13.279C9.83911 13.029 9.49985 12.8886 9.14616 12.8887C8.79246 12.8889 8.45331 13.0295 8.20329 13.2797C7.95328 13.5299 7.8129 13.8691 7.81302 14.2228C7.81315 14.5765 7.95377 14.9157 8.20396 15.1657L11.4093 18.371C11.5455 18.5073 11.7072 18.6154 11.8852 18.6891C12.0632 18.7629 12.254 18.8008 12.4466 18.8008C12.6393 18.8008 12.8301 18.7629 13.0081 18.6891C13.186 18.6154 13.3478 18.5073 13.484 18.371L19.9906 11.863C20.2335 11.6115 20.3679 11.2747 20.3649 10.9251C20.3618 10.5755 20.2216 10.2411 19.9744 9.9939C19.7272 9.74669 19.3928 9.60647 19.0432 9.60343C18.6936 9.60039 18.3568 9.73478 18.1053 9.97766Z" fill="#006BC5"/>
</svg>
