<svg width="20" height="26" viewBox="0 0 20 26" fill="none" xmlns="http://www.w3.org/2000/svg">
<path d="M8.96082 25.8333C8.82554 25.8331 8.69132 25.8094 8.56416 25.7633C8.31886 25.6735 8.1108 25.5039 7.97331 25.2818C7.83581 25.0597 7.77683 24.7979 7.80582 24.5383L8.70416 16.2666H1.83249C1.62054 16.2669 1.41251 16.2095 1.23074 16.1005C1.04897 15.9915 0.900323 15.8351 0.80077 15.6479C0.701216 15.4608 0.654516 15.2501 0.665683 15.0385C0.676851 14.8268 0.745465 14.6222 0.864156 14.4466L10.0692 0.679951C10.2147 0.464512 10.4281 0.303881 10.6754 0.223561C10.9227 0.143242 11.1898 0.147837 11.4342 0.236617C11.6691 0.323841 11.8697 0.484399 12.0063 0.694522C12.1429 0.904645 12.2082 1.15316 12.1925 1.40328L11.2942 9.73328H18.1658C18.3778 9.73296 18.5858 9.79039 18.7676 9.89939C18.9493 10.0084 19.098 10.1648 19.1975 10.352C19.2971 10.5391 19.3438 10.7498 19.3326 10.9614C19.3215 11.1731 19.2528 11.3777 19.1342 11.5533L9.92915 25.3199C9.82214 25.4783 9.67787 25.6079 9.50902 25.6974C9.34017 25.7869 9.15193 25.8336 8.96082 25.8333Z" fill="#FCFCFD"/>
</svg>
