<svg width="28" height="28" viewBox="0 0 28 28" fill="none" xmlns="http://www.w3.org/2000/svg">
<g clip-path="url(#clip0_224_20950)">
<path d="M27.8562 8.07938L24.0316 0.766516C23.8085 0.339953 23.2314 -0.00873438 22.7506 -0.00873438H13.9476C13.938 -0.00914453 13.9284 -0.0117422 13.9188 -0.012207C13.9109 -0.012207 13.9035 -0.00911719 13.8956 -0.00870703H5.25061C4.76935 -0.00870703 4.19098 0.339105 3.96479 0.763918L0.150229 7.93585C-0.0764233 8.36067 -0.030896 9.02788 0.249514 9.41945L13.375 27.7166C13.5159 27.913 13.7031 28.0123 13.8899 28.0123C14.0754 28.0123 14.2613 27.9156 14.4031 27.7227L27.7442 9.55945C28.0281 9.17136 28.0793 8.50551 27.8562 8.07938ZM25.7684 7.86493H21.0802L22.9575 2.48893L25.7684 7.86493ZM15.7326 1.74124H21.3646L19.6176 6.74318L15.7326 1.74124ZM18.2727 7.86493H10.1339L13.9804 2.33886L18.2727 7.86493ZM8.58342 7.02974L6.82859 1.74124H12.265L8.58342 7.02974ZM18.6148 9.61493L13.9108 23.0829L9.44134 9.61493H18.6148ZM11.9478 22.725L2.54327 9.61493H7.59727L11.9478 22.725ZM20.4685 9.61493H25.5317L15.88 22.7552L20.4685 9.61493ZM5.15427 2.25355L7.01627 7.86493H2.16965L5.15427 2.25355Z" fill="#64108F"/>
</g>
<defs>
<clipPath id="clip0_224_20950">
<rect width="28" height="28" fill="white"/>
</clipPath>
</defs>
</svg>
