<svg width="22" height="28" viewBox="0 0 22 28" fill="none" xmlns="http://www.w3.org/2000/svg">
<path d="M21.0656 12.6624C20.459 11.2969 19.577 10.0714 18.475 9.06237L17.5656 8.22799C17.5347 8.20044 17.4976 8.18088 17.4574 8.17105C17.4172 8.16121 17.3752 8.16139 17.3351 8.17157C17.295 8.18175 17.258 8.20162 17.2273 8.22944C17.1967 8.25726 17.1734 8.29217 17.1594 8.33112L16.7531 9.49674C16.5 10.228 16.0344 10.9749 15.375 11.7092C15.3313 11.7561 15.2813 11.7686 15.2469 11.7717C15.2125 11.7749 15.1594 11.7686 15.1125 11.7249C15.0687 11.6874 15.0469 11.6311 15.05 11.5749C15.1656 9.69361 14.6031 7.57174 13.3719 5.26236C12.3531 3.34361 10.9375 1.84674 9.16875 0.80299L7.87813 0.0436153C7.70938 -0.0563847 7.49375 0.0748652 7.50313 0.27174L7.57187 1.77174C7.61875 2.79674 7.5 3.70299 7.21875 4.45612C6.875 5.37799 6.38125 6.23424 5.75 7.00299C5.3107 7.53725 4.81278 8.02049 4.26562 8.44362C2.94783 9.45663 1.87629 10.7547 1.13125 12.2405C0.388043 13.7393 0.000906753 15.3894 0 17.0624C0 18.5374 0.290625 19.9655 0.865625 21.3124C1.42083 22.6091 2.22206 23.786 3.225 24.778C4.2375 25.778 5.4125 26.5655 6.72188 27.1124C8.07812 27.6811 9.51562 27.9686 11 27.9686C12.4844 27.9686 13.9219 27.6811 15.2781 27.1155C16.5843 26.5718 17.772 25.7789 18.775 24.7811C19.7875 23.7811 20.5812 22.6124 21.1344 21.3155C21.7085 19.9723 22.003 18.5262 22 17.0655C22 15.5405 21.6875 14.0592 21.0656 12.6624Z" fill="#64108F"/>
</svg>
